<svg width="228" height="318" viewBox="0 0 228 318" fill="none" xmlns="http://www.w3.org/2000/svg">
<rect width="71.6571" height="42.3429" fill="#B86538"/>
<rect y="58.6285" width="94.4571" height="42.3429" fill="#B86538"/>
<rect x="70.0293" y="117.257" width="48.8571" height="42.3429" fill="#B86538"/>
<rect y="117.257" width="47.2286" height="42.3429" fill="#B86538"/>
<rect y="175.886" width="47.2286" height="42.3429" fill="#B86538"/>
<rect x="94.457" y="175.886" width="47.2286" height="42.3429" fill="#B86538"/>
<rect x="164.486" y="175.886" width="48.8571" height="42.3429" fill="#B86538"/>
<rect x="164.486" y="117.257" width="48.8571" height="42.3429" fill="#B86538"/>
<rect x="164.486" y="58.6285" width="48.8571" height="42.3429" fill="#B86538"/>
<rect x="164.486" width="48.8571" height="42.3429" fill="#B86538"/>
<rect y="234.514" width="47.2286" height="42.3429" fill="#B86538"/>
<rect x="117.258" y="234.514" width="94.4571" height="42.3429" fill="#B86538"/>
<rect x="6.51367" y="285" width="3.25714" height="32.5714" fill="#B86538"/>
<rect x="60.2559" y="285" width="3.25714" height="32.5714" fill="#B86538"/>
<rect x="6.51367" y="317.571" width="3.25714" height="57" transform="rotate(-90 6.51367 317.571)" fill="#B86538"/>
<rect x="13.0273" y="311.057" width="3.25714" height="43.9714" transform="rotate(-90 13.0273 311.057)" fill="#B86538"/>
<rect x="13.0273" y="285" width="3.25714" height="26.0571" fill="#B86538"/>
<path d="M53.7422 285H56.9993V311.057H53.7422V285Z" fill="#B86538"/>
<rect x="125.4" y="285" width="3.25714" height="32.5714" fill="#B86538"/>
<rect x="224.744" y="285" width="3.25714" height="32.5714" fill="#B86538"/>
<rect x="125.4" y="317.571" width="3.25714" height="99.3429" transform="rotate(-90 125.4 317.571)" fill="#B86538"/>
<rect x="131.914" y="311.057" width="3.25714" height="87.9429" transform="rotate(-90 131.914 311.057)" fill="#B86538"/>
<rect x="131.914" y="285" width="3.25714" height="26.0571" fill="#B86538"/>
<path d="M218.229 285H221.486V311.057H218.229V285Z" fill="#B86538"/>
<rect x="57" y="159.6" width="3.25714" height="27.6857" transform="rotate(180 57 159.6)" fill="#B86538"/>
<rect x="70.0293" y="131.914" width="3.25714" height="16.2857" transform="rotate(90 70.0293 131.914)" fill="#B86538"/>
<rect x="70.0293" y="138.429" width="3.25714" height="9.77143" transform="rotate(90 70.0293 138.429)" fill="#B86538"/>
<path d="M63.5156 159.6H60.2585V138.429H63.5156V159.6Z" fill="#B86538"/>
<rect width="3.25714" height="27.6857" transform="matrix(1 0 0 -1 131.914 159.6)" fill="#B86538"/>
<rect width="3.25714" height="16.2857" transform="matrix(0 1 1 0 118.885 131.914)" fill="#B86538"/>
<rect width="3.25714" height="9.77143" transform="matrix(0 1 1 0 118.885 138.429)" fill="#B86538"/>
<path d="M125.398 159.6H128.656V138.429H125.398V159.6Z" fill="#B86538"/>
<rect width="3.25714" height="27.6857" transform="matrix(1 0 0 -1 107.486 100.971)" fill="#B86538"/>
<rect width="3.25714" height="16.2857" transform="matrix(0 1 1 0 94.457 73.2857)" fill="#B86538"/>
<rect width="3.25714" height="9.77143" transform="matrix(0 1 1 0 94.457 79.8)" fill="#B86538"/>
<path d="M100.971 100.971H104.228V79.8H100.971V100.971Z" fill="#B86538"/>
<rect width="3.25714" height="27.6857" transform="matrix(1 0 0 -1 224.744 42.3428)" fill="#B86538"/>
<rect width="3.25714" height="16.2857" transform="matrix(0 1 1 0 211.715 14.6571)" fill="#B86538"/>
<rect width="3.25714" height="9.77143" transform="matrix(0 1 1 0 211.715 21.1714)" fill="#B86538"/>
<path d="M218.229 42.3428H221.486V21.1714H218.229V42.3428Z" fill="#B86538"/>
<rect width="3.25714" height="27.6857" transform="matrix(1 0 0 -1 84.6855 42.3428)" fill="#B86538"/>
<rect width="3.25714" height="16.2857" transform="matrix(0 1 1 0 71.6562 14.6571)" fill="#B86538"/>
<rect width="3.25714" height="9.77143" transform="matrix(0 1 1 0 71.6562 21.1714)" fill="#B86538"/>
<path d="M78.1699 42.3428H81.4271V21.1714H78.1699V42.3428Z" fill="#B86538"/>
<rect width="3.25714" height="27.6857" transform="matrix(1 0 0 -1 154.715 218.229)" fill="#B86538"/>
<rect width="3.25714" height="16.2857" transform="matrix(0 1 1 0 141.686 190.543)" fill="#B86538"/>
<rect width="3.25714" height="9.77143" transform="matrix(0 1 1 0 141.686 197.057)" fill="#B86538"/>
<path d="M148.199 218.229H151.456V197.057H148.199V218.229Z" fill="#B86538"/>
<rect width="3.25714" height="30.9429" transform="matrix(-1 0 0 1 81.4277 169.371)" fill="#B86538"/>
<rect width="3.25714" height="16.2857" transform="matrix(0 -1 -1 0 94.457 200.314)" fill="#B86538"/>
<rect width="3.25714" height="9.77143" transform="matrix(0 -1 -1 0 94.457 193.8)" fill="#B86538"/>
<path d="M87.9434 169.371H84.6862V193.8H87.9434V169.371Z" fill="#B86538"/>
<rect width="3.25714" height="30.9429" transform="matrix(-1 0 0 1 104.229 228)" fill="#B86538"/>
<rect width="3.25714" height="16.2857" transform="matrix(0 -1 -1 0 117.258 258.943)" fill="#B86538"/>
<rect width="3.25714" height="9.77143" transform="matrix(0 -1 -1 0 117.258 252.429)" fill="#B86538"/>
<path d="M110.744 228H107.487V252.429H110.744V228Z" fill="#B86538"/>
<path d="M53.7422 228H56.9993V276.857H53.7422V228Z" fill="#B86538"/>
<path d="M60.2559 228H63.513V276.857H60.2559V228Z" fill="#B86538"/>
<path d="M218.229 228H221.486V276.857H218.229V228Z" fill="#B86538"/>
<path d="M224.742 228H227.999V276.857H224.742V228Z" fill="#B86538"/>
<path d="M218.229 169.371H221.486V218.229H218.229V169.371Z" fill="#B86538"/>
<path d="M224.742 169.371H227.999V218.229H224.742V169.371Z" fill="#B86538"/>
<path d="M218.229 110.743H221.486V159.6H218.229V110.743Z" fill="#B86538"/>
<path d="M224.742 110.743H227.999V159.6H224.742V110.743Z" fill="#B86538"/>
<path d="M218.229 52.1143H221.486V100.971H218.229V52.1143Z" fill="#B86538"/>
<path d="M224.742 52.1143H227.999V100.971H224.742V52.1143Z" fill="#B86538"/>
<path d="M53.7422 169.371H56.9993V218.229H53.7422V169.371Z" fill="#B86538"/>
<path d="M60.2559 169.371H63.513V218.229H60.2559V169.371Z" fill="#B86538"/>
</svg>
