<svg width="265" height="295" viewBox="0 0 265 295" fill="none" xmlns="http://www.w3.org/2000/svg">
<path d="M163 110.091H178.909V126H163V110.091ZM163 94.1818H178.909V110.091H163V94.1818ZM163 78.2727H178.909V94.1818H163V78.2727ZM163 62.3636H178.909V78.2727H163V62.3636ZM194.818 110.091H210.727V126H194.818V110.091ZM194.818 94.1818H210.727V110.091H194.818V94.1818ZM194.818 78.2727H210.727V94.1818H194.818V78.2727ZM194.818 62.3636H210.727V78.2727H194.818V62.3636ZM226.636 110.091H242.545V126H226.636V110.091ZM226.636 94.1818H242.545V110.091H226.636V94.1818ZM226.636 78.2727H242.545V94.1818H226.636V78.2727ZM226.636 62.3636H242.545V78.2727H226.636V62.3636ZM210.727 46.4545H226.636V62.3636H210.727V46.4545ZM178.909 46.4545H194.818V62.3636H178.909V46.4545ZM163 46.4545H178.909V62.3636H163V46.4545Z" fill="white"/>
<path d="M50.7965 51.6736L28.7382 72.7932C28.3331 73.1811 28.3261 73.8261 28.7226 74.2226L94.5 140H1.9697C1.42939 140 0.986794 140.429 0.970177 140.969L0.0317155 171.469C0.0143596 172.033 0.466907 172.5 1.03124 172.5H96.5L29.7442 237.278C29.3376 237.672 29.3397 238.326 29.7487 238.717L52.2959 260.325C52.6876 260.701 53.3071 260.695 53.6922 260.313L118 196.5V293.03C118 293.57 118.429 294.013 118.97 294.029L149.97 294.969C150.534 294.986 151 294.533 151 293.969V196.5L215.278 260.283C215.675 260.677 216.317 260.669 216.704 260.265L238.323 237.707C238.699 237.314 238.692 236.692 238.308 236.308L188.393 186.393C185.58 183.58 181.765 182 177.787 182H129.558C128.521 182 127.484 181.926 126.457 181.78L126.042 181.72C125.016 181.574 124.006 181.335 123.023 181.008C122.01 180.67 121.03 180.239 120.097 179.721L119.017 179.12C117.676 178.375 116.413 177.497 115.248 176.498C114.086 175.502 113.026 174.391 112.086 173.182L111.446 172.36C110.483 171.121 109.609 169.816 108.831 168.454L108 167L107.14 164.994C106.714 164 106.368 162.973 106.106 161.923C105.703 160.314 105.5 158.661 105.5 157.002V110.754C105.5 106.752 103.9 102.915 101.057 100.098L52.1919 51.6855C51.8069 51.304 51.188 51.2987 50.7965 51.6736Z" fill="white"/>
<path d="M148.5 23.5H117.5C116.948 23.5 116.5 23.9477 116.5 24.5V156.024C116.5 157.661 116.795 159.285 117.37 160.819C117.788 161.935 118.351 162.991 119.044 163.961L119.437 164.511C120.143 165.5 120.972 166.394 121.905 167.171L122.048 167.29C123.011 168.093 124.085 168.751 125.237 169.244C126.406 169.745 127.642 170.071 128.907 170.212L131.5 170.5H264C264.552 170.5 265 170.052 265 169.5V140C265 139.448 264.552 139 264 139H149.5V24.5C149.5 23.9477 149.052 23.5 148.5 23.5Z" fill="white"/>
</svg>
